<?xml version="1.0" encoding="UTF-8" standalone="no"?>
<!-- Created with Inkscape (http://www.inkscape.org/) -->

<svg
   version="1.1"
   id="svg1"
   width="710.76398"
   height="816.26489"
   viewBox="0 0 710.76399 816.26511"
   xmlns="http://www.w3.org/2000/svg"
   xmlns:svg="http://www.w3.org/2000/svg">
  <defs
     id="defs1" />
  <g
     id="g1"
     transform="translate(-318.78607,-85.044071)">
    <path
       style="fill:#000000"
       d="m 702.05008,882.41734 c -15.9848,-29.5306 -33.7347,-91.0422 -41.76935,-144.75 -5.24775,-35.07869 -5.64402,-43.24455 -5.36235,-110.49996 0.28547,-68.16435 -0.017,-73.65085 -5.25146,-95.25702 -11.80604,-48.73149 -47.75759,-98.13575 -85.01239,-116.82315 -15.06065,-7.55458 -24.59439,-7.42068 -32.47112,0.45605 -5.20807,5.20807 -8.02504,11.46505 -10.84568,24.09018 -2.42284,10.84455 -2.33307,57.80732 0.14821,77.53394 6.03773,48.00109 16.26924,94.64266 35.69117,162.70252 4.38758,15.37532 7.97742,28.56814 7.97742,29.31724 0,2.2247 -1.78727,2.6657 -4.25366,1.0497 -5.01306,-3.2847 -27.17717,-30.75575 -45.23777,-56.06946 -35.62014,-49.92512 -66.67342,-101.72645 -93.51714,-156 -45.46073,-91.91404 -75.76118,-184.83626 -87.39052,-268 -3.89866,-27.88008 -4.95581,-42.87856 -4.96913,-70.5 -0.0219,-45.46904 4.53911,-62.033952 17.06856,-61.990232 5.15272,0.018 13.33648,4.871792 41.65979,24.708552 29.51536,20.67163 73.00608,49.54029 123.87651,82.22786 69.61934,44.73496 102.75866,69.73572 133.79357,100.93569 22.49356,22.61319 32.89749,35.87676 51.98364,66.27193 5.23261,8.33307 10.71936,16.05108 12.19276,17.15113 2.50549,1.87063 2.83853,1.89551 5.1447,0.38445 1.35618,-0.8886 7.27277,-8.35679 13.14797,-16.59597 18.55986,-26.02777 31.01786,-40.73702 53.93696,-63.68394 24.6313,-24.66117 39.5559,-37.59283 67.8311,-58.77344 32.5946,-24.4161 67.16042,-47.07652 112.48652,-73.74309 28.07636,-16.51807 42.35171,-23.84384 47.89571,-24.57904 3.7379,-0.4957 4.333,-0.26956 6,2.27993 1.6274,2.48908 1.8347,4.82358 1.7193,19.36819 -0.5606,70.68012 -26.94755,193.38325 -61.08161,284.03798 -18.7691,49.84792 -43.5795,99.44185 -69.72012,139.3651 -15.6151,23.84814 -40.2612,54.50316 -48.7822,60.67576 -4.6394,3.36073 -9.075,3.81114 -11.3513,1.15264 -0.8507,-0.99357 -5.3228,-10.27027 -9.938,-20.61488 -4.6152,-10.34461 -12.8588,-27.19418 -18.3192,-37.4435 -5.4604,-10.24932 -10.2152,-19.57212 -10.5663,-20.71734 -0.8923,-2.91037 1.4792,-4.58376 10.3899,-7.33134 9.1513,-2.82179 22.5033,-9.31649 30.9614,-15.06027 14.8313,-10.0717 30.4857,-28.1864 38.4789,-44.52617 8.1862,-16.73457 11.5597,-30.45732 11.5597,-47.0237 0,-48.35416 -40.8213,-73.14612 -85.5163,-51.93652 -14.9335,7.08657 -33.2612,23.53753 -43.8659,39.3742 -19.2781,28.78928 -28.57277,67.70492 -25.5706,107.06137 1.35698,17.78914 4.72826,38.06013 10.0659,60.52465 10.8673,45.73743 13.4159,63.57269 12.5747,87.99996 -0.8895,25.8336 -3.7754,40.4923 -16.3403,83 -8.99256,30.422 -14.12044,51.1095 -18.82092,75.9293 -1.96071,10.353 -3.80786,19.2167 -4.10479,19.6972 -1.3167,2.1304 -3.38522,0.4263 -6.52628,-5.3765 z m 90.60449,-356.08833 c -9.0414,-2.99605 -15.3254,-8.33849 -19.5981,-16.66163 -1.8653,-3.63372 -2.3176,-6.1363 -2.3491,-13 -0.034,-7.32352 0.3286,-9.19204 2.6176,-13.5 3.1849,-5.99402 8.6999,-11.43732 14.8296,-14.6368 3.7463,-1.95549 6.0072,-2.35006 13.5,-2.35603 8.1154,-0.006 9.5266,0.28455 14.3588,2.96098 10.4629,5.79524 15.3893,13.9139 15.9645,26.30963 0.34,7.32642 0.087,8.88576 -2.2039,13.56769 -5.2656,10.76237 -15.3178,17.57019 -26.9803,18.27213 -3.4629,0.20843 -7.8829,-0.20831 -10.1391,-0.95597 z"
       id="path1" />
  </g>
</svg>
